<svg version="1.0" xmlns="http://www.w3.org/2000/svg" width="1266.667" height="1266.667" viewBox="0 0 950 950"><path d="M858 143.4c-.3.2-1.8.6-3.5.9-12.9 2.1-27.5 12.3-35.4 24.9-8.8 13.9-9.9 35.2-2.6 49.7l2.2 4.4-4.7 10.6c-4.9 11-8.8 19.7-12 26.6-1 2.2-8.9 19.7-17.5 39-8.7 19.2-16.8 37.5-18.2 40.5-1.4 3-6.4 14-11 24.5-8.8 19.7-11.4 25.5-15.3 34-1.3 2.7-3.4 7.5-4.7 10.5-1.4 3-3.4 7.5-4.5 10-1.2 2.5-14.4 31.9-29.5 65.5-15.1 33.5-28.3 62.8-29.3 65-1 2.2-8.9 19.7-17.5 39-8.6 19.2-16.7 37.2-18 40-1.2 2.7-3.2 7.2-4.5 10-1.2 2.7-3.3 7.2-4.5 10-1.3 2.7-7.3 16.2-13.5 30-6.2 13.7-12.3 27.2-13.5 30-1.3 2.7-3.2 7-4.3 9.5-4.8 10.8-10.3 23-11.7 25.7-.8 1.5-1.5 3.4-1.5 4 0 3.1-1.9.5-7.3-10-3.2-6.1-8.7-16.6-12.3-23.2-3.5-6.6-7.6-14.3-9-17-1.4-2.8-4-7.7-5.8-11-1.7-3.3-5.8-11-9-17-3.3-6.1-7.8-14.6-10.1-19-8.5-16-48.9-92.2-53.8-101.5-5.4-10.3-10.8-20.5-16.7-31.5-2.1-3.9-6.1-11.5-9-17-2.9-5.5-6.9-13.2-9-17-4-7.5-9.6-18.1-18-34-2.9-5.5-6.5-12.3-8-15-10-18.5-24-45.3-24-45.9 0-1.8-7.6-12.2-11.8-16.2-10.5-10-29.6-14.4-47.7-10.9-6.5 1.2-17.7 7-22.2 11.6-6 5.9-7.8 9.4-19.8 37.5-5.8 13.7-11.2 26.2-12 27.9-.7 1.6-6.1 14.2-12 28-5.8 13.7-11.4 26.8-12.4 29-1 2.2-5.1 11.6-9 21-4 9.3-8.6 19.8-10.2 23.3-1.6 3.5-2.9 6.5-2.9 6.8 0 .2-2.8 6.9-6.1 14.7-3.4 7.8-7 16.2-8.1 18.7-1 2.5-2.3 5.4-2.8 6.5-.5 1.1-1.4 3.3-2 4.9-.9 2.5-1.3 2.7-2.4 1.5-1-1.1-36.7-57.9-67.1-106.8-2.7-4.4-13.9-22.4-24.9-39.8-10.9-17.5-22.9-36.6-26.5-42.5l-6.6-10.7-28.4-.1H27.8l1.4 2.2c6.6 10.1 135 225.3 136.6 228.8 6.2 13.9 19.4 24.3 33.9 26.6 18.8 3 36.1-1.4 46.8-12 6-5.9 7.8-8.9 13-21.2 2.1-4.9 4.8-11.2 6-13.9 2.5-5.5 7.4-16.9 28.5-66 7.8-18.2 15.1-35 16.2-37.5 4.1-9.2 22.3-51.5 28.9-67 2.9-6.9 5.5-12.8 5.8-13.2.4-.4 1.8 1.4 3.1 4 1.4 2.6 6.4 11.9 11.1 20.7 4.7 8.8 10.9 20.5 13.9 26 2.9 5.5 7.1 13.4 9.3 17.5 2.2 4.1 11.4 21.4 20.4 38.5 9.1 17 18.3 34.4 20.5 38.5 2.3 4.1 6.1 11.3 8.6 16 2.4 4.7 6.1 11.6 8.2 15.5 2.1 3.8 5.9 11 8.5 16 2.6 4.9 6.4 12.1 8.5 16 8 15 20 37.5 25 47 2.9 5.5 6.7 12.7 8.5 16 1.8 3.3 5.5 10.3 8.3 15.5 2.7 5.2 6.2 11.7 7.7 14.5 1.5 2.7 5.4 10.2 8.8 16.5 3.4 6.3 8.3 15.5 10.9 20.5 2.7 4.9 6.5 12.4 8.4 16.5 8.6 18.2 16.6 25.6 32.2 29.9 13.4 3.6 29.2 2.2 41.1-3.9 7.1-3.6 11.9-8 16.2-15 3.5-5.5 4-6.6 7.7-15 1.1-2.5 3-6.8 4.2-9.5 1.2-2.8 7.9-17.6 14.7-33 6.9-15.4 13.5-30.3 14.8-33 1.2-2.8 3.7-8.4 5.5-12.5 1.8-4.1 4.7-10.7 6.5-14.6 1.9-4 4.8-10.5 6.5-14.5 1.8-4.1 4.6-10.3 6.2-13.9 1.6-3.6 5.5-12.1 8.5-19s6.9-15.4 8.5-19c1.6-3.6 3.7-8.3 4.6-10.5.8-2.2 1.8-4.5 2.2-5 .4-.6 2.9-6 5.5-12 2.6-6.1 6-13.7 7.5-17 1.6-3.3 6.7-14.8 11.5-25.5s9.7-21.8 11-24.5c1.2-2.8 3.7-8.4 5.5-12.5 1.8-4.1 4.8-10.8 6.6-14.8 1.9-4.1 3.4-7.5 3.4-7.7 0-.2 1.8-4.3 4-9s4-8.8 4-9c0-.2 2-4.6 4.5-9.9 2.5-5.3 4.5-9.9 4.5-10.1 0-.2 1.3-3.2 2.9-6.7 1.6-3.5 6-13.1 9.6-21.3 3.7-8.3 7.5-16.8 8.5-19 1-2.2 4.5-10.1 7.8-17.5s7.1-16 8.5-19c1.3-3 3.4-7.5 4.5-10 3.7-8.5 27-60.5 29.5-66 1.4-3 3.5-8 4.8-11 1.3-3 3.2-7.3 4.4-9.5 2-3.9 2.1-4 8.9-4.7 13.7-1.3 24.5-6.5 34.2-16.4 17-17.1 20.1-43.1 7.8-64.2-6.2-10.7-20.5-21.1-33.5-24.5-5.2-1.3-20.9-2.3-21.9-1.3zm19.9 33.2c2.9 1.5 5.9 4.4 8.1 7.5 3.1 4.6 3.4 5.7 3.4 12.2.1 7.9-1.2 11.1-6.4 16.5-8.5 8.9-24.1 9.1-33.3.4-4.6-4.4-7-9.9-7-16.7-.3-17.6 19.3-28.6 35.2-19.9z"/></svg>